<svg width="18" height="18" viewBox="0 0 18 18" xmlns="http://www.w3.org/2000/svg">
<g fill="none" fill-rule="evenodd">
<path d="M17.64 9.2c0-.637-.057-1.251-.164-1.84H9v4h4.844c-.207 1.125-.834 2.08-1.796 2.71v2.258h2.908c1.702-1.567 2.688-3.874 2.688-6.618z" fill="#4285F4"/>
<path d="M9 18c3 0 5.511-1 7.355-2.704l-2.873-2.213c-.804.537-1.837.827-3.482.827-2.679 0-4.95-1.806-5.762-4.237H0V11c1.874 3.745 5.898 7 9 7z" fill="#34A853"/>
<path d="M3.964 9.363c-.336-1.01-.336-2.083 0-3.093V3.957H0c-1.092 2.181-1.092 4.827 0 7.008l3.964-1.602z" fill="#FBBC04"/>
<path d="M9 7.109c1.445 0 2.795.5 3.851 1.343l2.873-2.87c-1.738-1.548-4-2.282-7.474-2.282C5.898 0 1.874 3.245 0 6.953l4.237 1.654c.813-2.431 3.083-4.598 5.763-4.598z" fill="#EA4335"/>
</g>
</svg> 